<svg xmlns="http://www.w3.org/2000/svg" viewBox="0 0 32 32" fill="none">
  <!-- Background circle -->
  <circle cx="16" cy="16" r="15" fill="#E51636"/>
  
  <!-- Chick-fil-A style "C" -->
  <path d="M10 8 Q8 8 8 12 L8 16 Q8 20 10 20 Q12 20 12 16 L12 14 Q12 13 11 13 L11 15 Q11 15.5 10.5 15.5 Q10 15.5 10 15 L10 13 Q10 12.5 10.5 12.5 Q11 12.5 11 13" fill="white"/>
  
  <!-- Stylized chicken head -->
  <ellipse cx="20" cy="12" rx="3" ry="2" fill="white"/>
  <circle cx="19" cy="11" r="0.5" fill="#E51636"/>
  <circle cx="21" cy="11" r="0.5" fill="#E51636"/>
  <path d="M18 13 Q20 14 22 13" stroke="#E51636" stroke-width="0.5" fill="none"/>
  
  <!-- Decorative elements -->
  <circle cx="24" cy="8" r="1" fill="white"/>
  <circle cx="26" cy="10" r="0.8" fill="white"/>
  <circle cx="25" cy="12" r="1" fill="white"/>
</svg>


